<?xml version="1.0" encoding="utf-8"?>
<svg version="1.1" xmlns="http://www.w3.org/2000/svg" xmlns:xlink="http://www.w3.org/1999/xlink" x="0px" y="0px" width="258.008px" height="258.008px" viewBox="0 0 258.008 258.008">
<g><g>
<path d="M125.609,122.35H10.049C4.5,122.35,0,126.85,0,132.399v115.56c0,5.549,4.5,10.048,10.049,10.048H125.61 c5.548,0,10.046-4.499,10.046-10.048v-115.56C135.656,126.85,131.158,122.35,125.609,122.35z M115.559,237.909H20.098v-95.463 h95.461V237.909z" fill="white"/>
<path d="M247.958,0.001H10.049C4.5,0.001,0,4.5,0,10.049v93.312c0,5.55,4.5,10.05,10.049,10.05c5.55,0,10.049-4.5,10.049-10.05 V20.098h217.812v217.812h-82.915c-5.55,0-10.05,4.5-10.05,10.05c0,5.549,4.5,10.048,10.05,10.048h92.964 c5.55,0,10.05-4.499,10.05-10.048V10.049C258.008,4.5,253.508,0.001,247.958,0.001z" fill="white"/>
<path d="m 217.46947,43.754467 c -1.96497,-1.961029 -4.53396,-2.942067 -7.10496,-2.942105 -2.57,-3.8e-5 -5.14201,0.980924 -7.10404,2.941895 l -31.75547,31.75653 2.1e-4,-14.451 c 8e-5,-5.549 -4.49885,-10.047066 -10.04985,-10.047149 -5.549,-8.2e-5 -10.04807,4.497852 -10.04815,10.046852 l -5.4e-4,36.516 c 0,0.365 0.068,0.713001 0.10699,1.068001 -0.32905,2.932999 0.58791,5.979009 2.83687,8.229039 2.14597,2.14804 5.02296,3.07908 7.83096,2.87312 0.233,0.017 0.461,0.072 0.696,0.072 l 36.513,5.4e-4 c 5.551,8e-5 10.05107,-4.49985 10.05115,-10.049852 8e-5,-5.549 -4.49985,-10.049067 -10.05085,-10.049149 l -13.679,-2.02e-4 31.75747,-31.75353 c 3.92405,-3.923942 3.92415,-10.286942 2.1e-4,-14.211 z" fill="white"/>
</g></g>
</svg>
